<?xml version="1.0" standalone="no"?><!DOCTYPE svg PUBLIC "-//W3C//DTD SVG 1.1//EN" "http://www.w3.org/Graphics/SVG/1.1/DTD/svg11.dtd"><svg class="icon" width="200px" height="200.00px" viewBox="0 0 1024 1024" version="1.1" xmlns="http://www.w3.org/2000/svg"><path fill="#ffffff" d="M660.810667 625.301333c-9.429333-3.754667-55.104-28.309333-29.632-95.189333 65.365333-66.794667 114.794667-174.976 114.794667-281.514667C745.994667 85.461333 638.133333 0 511.989333 0 385.866667 0 278.026667 85.461333 278.026667 248.597333c0 106.538667 49.408 214.72 114.794667 281.514667 25.472 66.88-20.202667 91.434667-29.632 95.189333C126.922667 719.125333 76.298667 845.973333 76.298667 845.973333L76.298667 1024l435.690667 0 435.690667 0 0-178.026667C947.701333 845.973333 897.098667 719.125333 660.810667 625.301333z" /></svg>