<?xml version="1.0" standalone="no"?><!DOCTYPE svg PUBLIC "-//W3C//DTD SVG 1.1//EN" "http://www.w3.org/Graphics/SVG/1.1/DTD/svg11.dtd"><svg class="icon" width="200px" height="200.00px" viewBox="0 0 1024 1024" version="1.1" xmlns="http://www.w3.org/2000/svg"><path fill="#808488" d="M511.976727 46.545455C768.628364 46.545455 977.454545 255.348364 977.454545 512c0 256.651636-208.826182 465.454545-465.477818 465.454545C255.348364 977.454545 46.545455 768.651636 46.545455 512 46.545455 255.348364 255.348364 46.545455 511.976727 46.545455M511.976727 0C229.096727 0 0 229.236364 0 512c0 282.693818 229.096727 512 511.976727 512C794.740364 1024 1024 794.693818 1024 512 1024 229.236364 794.740364 0 511.976727 0L511.976727 0zM820.247273 531.293091c0 157.044364-138.030545 284.369455-308.270545 284.369455-170.263273 0-308.247273-127.325091-308.247273-284.369455L820.247273 531.293091zM348.741818 338.478545m-61.905455 0a2.66 2.66 0 1 0 123.810909 0 2.66 2.66 0 1 0-123.810909 0ZM690.920727 338.478545m-61.928727 0a2.661 2.661 0 1 0 123.857455 0 2.661 2.661 0 1 0-123.857455 0Z" /></svg>